<?xml version="1.0" encoding="iso-8859-1"?>
<!-- Generator: Adobe Illustrator 16.0.0, SVG Export Plug-In . SVG Version: 6.00 Build 0)  -->
<!DOCTYPE svg PUBLIC "-//W3C//DTD SVG 1.1//EN" "http://www.w3.org/Graphics/SVG/1.1/DTD/svg11.dtd">
<svg version="1.1" id="Capa_1" xmlns="http://www.w3.org/2000/svg" xmlns:xlink="http://www.w3.org/1999/xlink" x="0px" y="0px"
	 width="383.241px" height="383.241px" viewBox="0 0 383.241 383.241" style="enable-background:new 0 0 383.241 383.241;"
	 xml:space="preserve">
<g>
	<path d="M317.368,121.823l-44.896-32.345c-4.33-3.12-10.516-9.882-13.238-14.471l-6.19-10.431c0,0-1.012-1.709,0.595-1.709
		c4.714,0,18.451,0,18.451,0c4.577,0,8.32-3.745,8.32-8.321V8.321c0-4.577-3.743-8.321-8.32-8.321H111.151
		c-4.577,0-8.322,3.744-8.322,8.321v46.225c0,4.576,3.745,8.321,8.322,8.321c0,0,13.452,0,18.066,0c1.963,0,0.889,1.864,0.889,1.864
		l-6.1,10.278c-2.723,4.587-8.909,11.35-13.239,14.469l-44.896,32.346c-7.622,5.492-13.369,16.718-13.369,26.111l0.168,183.201
		c0.128,34.209,69.869,52.105,138.764,52.105c35.757,0,69.497-4.704,95.009-13.246c36.612-12.258,44.296-28.17,44.296-39.361v-182.7
		C330.738,138.54,324.991,127.315,317.368,121.823z M312.801,330.634c0,5.36-8.394,14.432-32.054,22.353
		c-23.723,7.942-55.44,12.316-89.313,12.316c-33.919,0-65.551-4.304-89.063-12.12c-23.444-7.793-31.763-16.799-31.763-22.143
		L70.44,147.933c0-3.681,0.652-8.111,5.917-11.558l44.895-32.345c6.259-4.51,14.247-13.237,18.181-19.87l10.643-17.932
		c0,0,1.957-3.424,5.545-3.424c16.426,0,59.697,0.057,71.6,0.057c3.736,0,5.543,2.68,5.543,2.68l11.048,18.618
		c3.934,6.633,11.92,15.36,18.179,19.87l44.896,32.345c5.985,3.97,5.918,7.877,5.918,11.558v182.702H312.801z"/>
	<path d="M266.881,295.531H116.358c-8.703,0-15.783-7.08-15.783-15.782v-79.983c0-8.703,7.08-15.783,15.783-15.783h150.524
		c4.207,0,8.168,1.644,11.153,4.629c2.986,2.986,4.63,6.948,4.629,11.156v79.981C282.664,288.451,275.584,295.531,266.881,295.531z
		 M116.575,279.531h150.089v-79.549H116.575V279.531z"/>
</g>
<g>
</g>
<g>
</g>
<g>
</g>
<g>
</g>
<g>
</g>
<g>
</g>
<g>
</g>
<g>
</g>
<g>
</g>
<g>
</g>
<g>
</g>
<g>
</g>
<g>
</g>
<g>
</g>
<g>
</g>
</svg>
